<svg width="57" height="57" viewBox="0 0 57 57" fill="none" xmlns="http://www.w3.org/2000/svg">
<rect width="57" height="57" rx="15" fill="#323238"/>
<path d="M45.5498 28.3368C45.539 20.418 38.249 14.0099 29.2651 14.0222C20.2812 14.0344 13.0087 20.4623 13.0195 28.3811C13.0293 35.5383 18.9843 41.4609 26.7625 42.5256L26.7489 32.5066L22.619 32.5123L22.6134 28.368L26.7432 28.3624L26.7389 25.2038C26.734 21.6112 29.1584 19.6226 32.8752 19.6176C34.6542 19.6151 36.5162 19.8926 36.5162 19.8926L36.521 23.4208L34.4688 23.4236C32.4484 23.4264 31.8209 24.5333 31.8224 25.6673L31.8261 28.3555L36.3371 28.3493L35.6216 32.4946L31.8317 32.4997L31.8454 42.5187C39.6206 41.4328 45.5595 35.494 45.5498 28.3368Z" fill="white"/>
</svg>
