<svg width="57" height="57" viewBox="0 0 57 57" fill="none" xmlns="http://www.w3.org/2000/svg">
<rect width="57" height="57" rx="15" fill="#323238"/>
<g clip-path="url(#clip0_61497:164)">
<path d="M28.7347 43.5C27.4202 43.5 25.8847 43.4929 24.3695 43.4062C22.1525 43.4561 20.0053 42.6295 18.394 41.106C16.8702 39.4953 16.0436 37.3484 16.0938 35.1317C16 33.4181 16 31.6856 16 30.01C16 29.7567 16 29.5033 16 29.25C16 28.9967 16 28.7433 16 28.49C16 26.8144 16 25.0819 16.0938 23.3695C16.0439 21.1525 16.8705 19.0053 18.394 17.394C20.0053 15.8705 22.1525 15.0439 24.3695 15.0938C25.8895 15.0071 27.4202 15 28.7347 15H31.7664C33.081 15 34.6164 15.0071 36.1329 15.0938C38.3496 15.0436 40.4965 15.8702 42.1072 17.394C43.6307 19.0053 44.4573 21.1525 44.4074 23.3695C44.5 25.0819 44.5 26.8144 44.5 28.4912C44.5 28.7445 44.5 28.9979 44.5 29.2512C44.5 29.5045 44.5 29.7575 44.5 30.01C44.5 31.6856 44.5 33.4181 44.4062 35.1329C44.4564 37.3496 43.6298 39.4965 42.106 41.1072C40.4953 42.631 38.3484 43.4576 36.1317 43.4074C34.6105 43.4941 33.0798 43.5012 31.7652 43.5012L28.7347 43.5Z" fill="white"/>
<path d="M36.9071 23.0615C37.1879 23.2491 37.5181 23.3493 37.8558 23.3493L37.857 23.3505C38.3098 23.3498 38.7438 23.1695 39.0638 22.8491C39.3837 22.5287 39.5634 22.0944 39.5634 21.6416C39.5634 21.3039 39.4633 20.9738 39.2757 20.6929C39.088 20.4121 38.8213 20.1933 38.5093 20.064C38.1973 19.9348 37.8539 19.9009 37.5227 19.9668C37.1914 20.0327 36.8872 20.1954 36.6483 20.4342C36.4095 20.673 36.2469 20.9773 36.181 21.3085C36.1151 21.6398 36.1489 21.9831 36.2782 22.2951C36.4074 22.6072 36.6263 22.8739 36.9071 23.0615Z" fill="#323238"/>
<path fill-rule="evenodd" clip-rule="evenodd" d="M30.2502 36.5598C28.8044 36.5596 27.3912 36.1307 26.1892 35.3273C24.9872 34.5239 24.0504 33.3821 23.4973 32.0463C22.9442 30.7105 22.7996 29.2407 23.0818 27.8227C23.364 26.4047 24.0603 25.1023 25.0827 24.08C26.1051 23.0578 27.4077 22.3617 28.8257 22.0797C30.2437 21.7977 31.7135 21.9426 33.0492 22.4959C34.3849 23.0492 35.5265 23.9862 36.3298 25.1884C37.133 26.3905 37.5617 27.8038 37.5617 29.2496C37.5598 31.1881 36.7889 33.0467 35.4181 34.4175C34.0474 35.7882 32.1888 36.5579 30.2502 36.5598ZM30.2502 24.5002C29.3107 24.5002 28.3924 24.7788 27.6112 25.3007C26.8301 25.8227 26.2213 26.5645 25.8617 27.4325C25.5022 28.3004 25.4082 29.2555 25.5914 30.1769C25.7747 31.0983 26.2271 31.9447 26.8914 32.609C27.5557 33.2733 28.4021 33.7257 29.3235 33.9089C30.2449 34.0922 31.2 33.9981 32.0679 33.6386C32.9359 33.2791 33.6777 32.6703 34.1997 31.8892C34.7216 31.108 35.0002 30.1897 35.0002 29.2502C35.0002 27.9904 34.4997 26.7822 33.6089 25.8914C32.7181 25.0006 31.51 24.5002 30.2502 24.5002Z" fill="#323238"/>
</g>
<defs>
<clipPath id="clip0_61497:164">
<rect width="28.5" height="28.5" fill="white" transform="translate(16 15)"/>
</clipPath>
</defs>
</svg>
