<svg width="57" height="57" viewBox="0 0 57 57" fill="none" xmlns="http://www.w3.org/2000/svg">
<rect width="57" height="57" rx="15" fill="#323238"/>
<g clip-path="url(#clip0_61497:160)">
<path d="M37.5625 15H20.9375C17.6588 15 15 17.6588 15 20.9375V37.5625C15 40.8412 17.6588 43.5 20.9375 43.5H37.5625C40.8424 43.5 43.5 40.8412 43.5 37.5625V20.9375C43.5 17.6588 40.8424 15 37.5625 15ZM24.5 37.5625H20.9375V24.5H24.5V37.5625ZM22.7188 22.9942C21.5716 22.9942 20.6406 22.0561 20.6406 20.8995C20.6406 19.7429 21.5716 18.8047 22.7188 18.8047C23.8659 18.8047 24.7969 19.7429 24.7969 20.8995C24.7969 22.0561 23.8671 22.9942 22.7188 22.9942ZM38.75 37.5625H35.1875V30.9078C35.1875 26.9082 30.4375 27.2111 30.4375 30.9078V37.5625H26.875V24.5H30.4375V26.5959C32.0952 23.5251 38.75 23.2983 38.75 29.5362V37.5625Z" fill="white"/>
</g>
<defs>
<clipPath id="clip0_61497:160">
<rect width="28.5" height="28.5" fill="white" transform="translate(15 15)"/>
</clipPath>
</defs>
</svg>
