<svg width="59" height="57" viewBox="0 0 59 57" fill="none" xmlns="http://www.w3.org/2000/svg">
<rect width="58.24" height="57" rx="15" fill="#323238"/>
<path d="M22.0365 20.3961C22.5949 20.4109 23.1446 20.5457 23.6537 20.7928C24.1628 21.0399 24.6213 21.3944 25.0026 21.8359L29.2204 26.6971C29.367 26.8655 29.5694 26.9636 29.7833 26.9698C29.9971 26.9761 30.2049 26.89 30.3611 26.7304L34.8398 22.1418C35.2461 21.7228 35.7244 21.3953 36.2472 21.1782C36.7699 20.9611 37.3267 20.8587 37.8851 20.877L38.4078 20.8923L33.0705 14.7421C32.6753 14.2865 32.2009 13.9204 31.6745 13.6647C31.1481 13.409 30.58 13.2687 30.0026 13.2518C29.4252 13.2349 28.8499 13.3417 28.3094 13.5662C27.769 13.7907 27.274 14.1284 26.8528 14.5601L21.1856 20.3712L22.0365 20.3961Z" fill="white"/>
<path d="M42.7538 26.1104L39.5309 23.0136C39.4582 23.0422 39.3806 23.0572 39.3021 23.058H37.8365C37.0739 23.0598 36.3429 23.3508 35.8024 23.8677L31.6028 27.9004C31.2246 28.2632 30.712 28.4669 30.1777 28.4669C29.6433 28.4669 29.1307 28.2632 28.7525 27.9004L24.5369 23.8524C23.9966 23.3352 23.2655 23.0438 22.5028 23.0418H20.7037C20.6296 23.0402 20.5563 23.026 20.4873 23L17.244 26.1104C16.4474 26.8774 16 27.9168 16 29.0004C16 30.084 16.4474 31.1234 17.244 31.8905L20.4802 35C20.5491 34.9735 20.6224 34.9593 20.6966 34.9582H22.5028C23.2655 34.9561 23.9965 34.6648 24.5369 34.1476L28.7516 30.0979C29.5136 29.3665 30.8417 29.3665 31.6028 30.0979L35.8024 34.1323C36.3429 34.6492 37.0739 34.9402 37.8365 34.942H39.3021C39.3806 34.9426 39.4583 34.9576 39.5309 34.9864L42.7538 31.8896C43.1489 31.5101 43.4623 31.0596 43.6761 30.5637C43.8899 30.0678 44 29.5363 44 28.9996C44 28.4628 43.8899 27.9313 43.6761 27.4354C43.4623 26.9396 43.1489 26.489 42.7538 26.1095" fill="white"/>
<path d="M38.4445 36.9904C37.8615 36.9925 37.2838 36.8806 36.7449 36.6612C36.206 36.4418 35.7166 36.1192 35.3048 35.7121L30.7696 31.2357C30.6092 31.0844 30.3958 31 30.1738 31C29.9519 31 29.7385 31.0844 29.5781 31.2357L25.0276 35.7244C24.616 36.1321 24.1267 36.4553 23.5878 36.6754C23.0489 36.8954 22.4711 37.008 21.8879 37.0065H21L26.7468 42.6752C27.6087 43.5235 28.7766 44 29.9943 44C31.2119 44 32.3798 43.5235 33.2417 42.6752L39 36.9942L38.4445 36.9904Z" fill="white"/>
</svg>
