<svg width="57" height="57" viewBox="0 0 57 57" fill="none" xmlns="http://www.w3.org/2000/svg">
<rect width="57" height="57" rx="15" fill="#323238"/>
<g clip-path="url(#clip0_61497:172)">
<path d="M43.4995 17.3767C42.4321 17.9565 41.3007 18.3389 40.1422 18.5115C41.364 17.6127 42.2782 16.1987 42.7143 14.5329C41.5676 15.3746 40.3113 15.967 39.0008 16.284C38.2002 15.2279 37.1591 14.4928 36.0134 14.1747C34.8678 13.8565 33.6707 13.9701 32.5783 14.5007C31.486 15.0312 30.5491 15.954 29.89 17.1486C29.2308 18.3433 28.88 19.7544 28.8833 21.1978C28.881 21.7501 28.9317 22.3008 29.0343 22.8386C26.7068 22.6969 24.4298 21.9534 22.352 20.6568C20.2742 19.3602 18.4423 17.5396 16.9759 15.3139C16.2278 16.8984 15.9994 18.7739 16.3373 20.5581C16.6751 22.3424 17.5538 23.9013 18.7942 24.9172C17.862 24.8889 16.9495 24.5805 16.1366 24.0189V24.1082C16.136 25.7696 16.6035 27.3801 17.4597 28.666C18.3159 29.9518 19.508 30.8337 20.8334 31.1618C20.3313 31.3292 19.8133 31.414 19.293 31.414C18.9241 31.4149 18.556 31.3703 18.1943 31.2809C18.5679 32.7098 19.2957 33.9595 20.2759 34.855C21.256 35.7505 22.4395 36.2471 23.6606 36.2752C21.5887 38.2766 19.0285 39.3617 16.3931 39.3555C15.9268 39.3548 15.461 39.3203 14.998 39.2521C17.661 41.3816 20.7713 42.511 23.9485 42.5023C26.1401 42.5212 28.3129 42.0045 30.3406 40.9823C32.3683 39.9602 34.2104 38.4529 35.7599 36.5481C37.3093 34.6433 38.5353 32.3791 39.3664 29.8869C40.1974 27.3948 40.6171 24.7245 40.601 22.0313C40.601 21.7196 40.601 21.4079 40.5825 21.1032C41.7272 20.0838 42.7149 18.8219 43.4995 17.3767Z" fill="white"/>
</g>
<defs>
<clipPath id="clip0_61497:172">
<rect width="28.5" height="28.5" fill="white" transform="translate(15 14)"/>
</clipPath>
</defs>
</svg>
