<svg width="57" height="57" viewBox="0 0 57 57" fill="none" xmlns="http://www.w3.org/2000/svg">
<rect width="57" height="57" rx="15" fill="#323238"/>
<g clip-path="url(#clip0_61498:257)">
<path d="M29.2928 21.3401C24.9762 21.3401 21.4659 24.8503 21.4636 29.1645C21.4624 30.9256 21.9789 32.2449 22.8458 33.6248L22.0549 36.5127L25.0166 35.7361C26.343 36.5234 27.6101 36.9961 29.2856 36.9961C33.5986 36.9961 37.1124 33.4858 37.1136 29.1704C37.1172 24.8467 33.62 21.3413 29.2928 21.3401ZM33.8955 32.5299C33.6996 33.0797 32.7591 33.5808 32.3078 33.6485C31.9029 33.7091 31.3899 33.734 30.8258 33.5559C30.4838 33.4478 30.0456 33.3029 29.4851 33.0607C27.1256 32.0418 25.5842 29.6656 25.4666 29.5089C25.3491 29.3521 24.5059 28.2335 24.5059 27.0757C24.5059 25.9179 25.1139 25.3491 25.3289 25.1128C25.545 24.8752 25.7991 24.8159 25.9559 24.8159L26.4071 24.8242C26.552 24.8313 26.7456 24.7696 26.9368 25.2279C27.1327 25.6994 27.6029 26.8572 27.6623 26.9747C27.7205 27.0923 27.7609 27.2301 27.6813 27.3868C27.6029 27.5436 27.5638 27.6421 27.4462 27.7787L27.0935 28.1908C26.9759 28.3083 26.8536 28.4354 26.9902 28.6705C27.1279 28.9056 27.5994 29.6763 28.2988 30.2997C29.1978 31.1013 29.9554 31.3495 30.1905 31.4671C30.4256 31.5846 30.5634 31.5656 30.6999 31.4077C30.8377 31.2509 31.2878 30.7213 31.4445 30.485C31.6012 30.2487 31.758 30.2891 31.9741 30.3674C32.1903 30.4458 33.3469 31.0146 33.582 31.1334C33.8171 31.2509 33.9739 31.3103 34.0332 31.4077C34.0914 31.5086 34.0914 31.9801 33.8955 32.5299ZM37.5625 15H20.9375C17.6588 15 15 17.6588 15 20.9375V37.5625C15 40.8412 17.6588 43.5 20.9375 43.5H37.5625C40.8424 43.5 43.5 40.8412 43.5 37.5625V20.9375C43.5 17.6588 40.8424 15 37.5625 15ZM29.2892 38.5861C27.7134 38.5861 26.1613 38.1907 24.7862 37.4402L19.7951 38.75L21.1311 33.8717C20.3069 32.4444 19.8735 30.8246 19.8747 29.1645C19.8771 23.9728 24.0998 19.75 29.2892 19.75C31.8079 19.7512 34.1722 20.7321 35.9499 22.5109C37.7276 24.2898 38.7061 26.6565 38.7049 29.1716C38.7025 34.3634 34.4786 38.5861 29.2892 38.5861Z" fill="white"/>
</g>
<defs>
<clipPath id="clip0_61498:257">
<rect width="28.5" height="28.5" fill="white" transform="translate(15 15)"/>
</clipPath>
</defs>
</svg>
